<mxfile host="65bd71144e">
    <diagram id="Ecxp2tovQRVehOOdSJT5" name="Page-1">
        <mxGraphModel dx="1306" dy="622" grid="1" gridSize="10" guides="1" tooltips="1" connect="1" arrows="1" fold="1" page="1" pageScale="1" pageWidth="850" pageHeight="1100" math="0" shadow="0">
            <root>
                <mxCell id="0"/>
                <mxCell id="1" parent="0"/>
                <mxCell id="7" value="" style="edgeStyle=none;html=1;fontSize=6;" parent="1" source="2" target="6" edge="1">
                    <mxGeometry relative="1" as="geometry">
                        <Array as="points">
                            <mxPoint x="365" y="320"/>
                        </Array>
                    </mxGeometry>
                </mxCell>
                <mxCell id="13" style="edgeStyle=none;html=1;exitX=1;exitY=1;exitDx=0;exitDy=0;entryX=0;entryY=0;entryDx=0;entryDy=0;fontSize=6;" parent="1" source="2" target="11" edge="1">
                    <mxGeometry relative="1" as="geometry"/>
                </mxCell>
                <mxCell id="2" value="USER&lt;br&gt;" style="whiteSpace=wrap;html=1;" parent="1" vertex="1">
                    <mxGeometry x="305" y="220" width="120" height="60" as="geometry"/>
                </mxCell>
                <mxCell id="9" value="" style="edgeStyle=none;html=1;fontSize=6;entryX=0.25;entryY=1;entryDx=0;entryDy=0;" parent="1" source="6" target="2" edge="1">
                    <mxGeometry relative="1" as="geometry"/>
                </mxCell>
                <mxCell id="12" value="" style="edgeStyle=none;html=1;fontSize=6;" parent="1" source="6" target="11" edge="1">
                    <mxGeometry relative="1" as="geometry"/>
                </mxCell>
                <mxCell id="6" value="PLACE&lt;br&gt;belongs to user(owner)" style="whiteSpace=wrap;html=1;" parent="1" vertex="1">
                    <mxGeometry x="305" y="360" width="120" height="60" as="geometry"/>
                </mxCell>
                <mxCell id="8" value="USER HAS MANY" style="text;html=1;align=center;verticalAlign=middle;resizable=0;points=[];autosize=1;strokeColor=none;fillColor=none;fontSize=6;rotation=90;" parent="1" vertex="1">
                    <mxGeometry x="340" y="300" width="70" height="20" as="geometry"/>
                </mxCell>
                <mxCell id="10" value="place belogs to user" style="text;html=1;align=center;verticalAlign=middle;resizable=0;points=[];autosize=1;strokeColor=none;fillColor=none;fontSize=6;rotation=75;" parent="1" vertex="1">
                    <mxGeometry x="290" y="310" width="80" height="20" as="geometry"/>
                </mxCell>
                <mxCell id="11" value="VISIT&lt;br&gt;belongs to user&amp;amp;place" style="whiteSpace=wrap;html=1;" parent="1" vertex="1">
                    <mxGeometry x="505" y="360" width="120" height="60" as="geometry"/>
                </mxCell>
                <mxCell id="14" value="PLACE HAS MANY" style="text;html=1;align=center;verticalAlign=middle;resizable=0;points=[];autosize=1;strokeColor=none;fillColor=none;fontSize=6;" parent="1" vertex="1">
                    <mxGeometry x="410" y="370" width="80" height="20" as="geometry"/>
                </mxCell>
                <mxCell id="15" value="A visit is automatically created when a user's location is within the bounds of a place&amp;nbsp;" style="text;html=1;align=center;verticalAlign=middle;resizable=0;points=[];autosize=1;strokeColor=none;fillColor=none;fontSize=6;" parent="1" vertex="1">
                    <mxGeometry x="450" y="420" width="250" height="20" as="geometry"/>
                </mxCell>
                <mxCell id="16" value="A&amp;nbsp; Place is created when a user posts their attraction to the site for others to visit" style="text;html=1;align=center;verticalAlign=middle;resizable=0;points=[];autosize=1;strokeColor=none;fillColor=none;fontSize=6;" parent="1" vertex="1">
                    <mxGeometry x="140" y="430" width="240" height="20" as="geometry"/>
                </mxCell>
                <mxCell id="18" value="PLACE&lt;br&gt;attributes:&lt;br&gt;Address&lt;br&gt;Name&lt;br&gt;user_id&lt;br&gt;rate:" style="shape=note;whiteSpace=wrap;html=1;backgroundOutline=1;fontColor=#000000;darkOpacity=0.05;fillColor=#FFF9B2;strokeColor=none;fillStyle=solid;direction=west;gradientDirection=north;gradientColor=#FFF2A1;shadow=1;size=12;pointerEvents=1;fontSize=6;" parent="1" vertex="1">
                    <mxGeometry x="150" y="350" width="100" height="80" as="geometry"/>
                </mxCell>
                <mxCell id="19" value="USER&lt;br&gt;attributes:&lt;br&gt;Name&lt;br&gt;Birthday&lt;br&gt;Phone&lt;br&gt;Email&lt;br&gt;Secure_Password" style="shape=note;whiteSpace=wrap;html=1;backgroundOutline=1;fontColor=#000000;darkOpacity=0.05;fillColor=#FFF9B2;strokeColor=none;fillStyle=solid;direction=west;gradientDirection=north;gradientColor=#FFF2A1;shadow=1;size=12;pointerEvents=1;fontSize=6;" parent="1" vertex="1">
                    <mxGeometry x="130" y="180" width="160" height="150" as="geometry"/>
                </mxCell>
                <mxCell id="22" value="VISIT&amp;nbsp;&lt;br&gt;attributes:&lt;br&gt;datetime enter&lt;br&gt;datetime leave&lt;br&gt;place_id(owner)&lt;br&gt;user_id(visitor)&lt;br&gt;paid?&lt;br&gt;" style="shape=note;whiteSpace=wrap;html=1;backgroundOutline=1;fontColor=#000000;darkOpacity=0.05;fillColor=#FFF9B2;strokeColor=none;fillStyle=solid;direction=west;gradientDirection=north;gradientColor=#FFF2A1;shadow=1;size=20;pointerEvents=1;fontSize=6;" parent="1" vertex="1">
                    <mxGeometry x="530" y="230" width="100" height="110" as="geometry"/>
                </mxCell>
                <mxCell id="23" value="A user is created when a user signs up for the app&lt;br&gt;" style="text;html=1;align=center;verticalAlign=middle;resizable=0;points=[];autosize=1;strokeColor=none;fillColor=none;fontSize=6;" parent="1" vertex="1">
                    <mxGeometry x="290" y="200" width="160" height="20" as="geometry"/>
                </mxCell>
                <mxCell id="24" value="How will a visit process payments?" style="text;html=1;align=center;verticalAlign=middle;resizable=0;points=[];autosize=1;strokeColor=none;fillColor=none;fontSize=6;" parent="1" vertex="1">
                    <mxGeometry x="520" y="440" width="120" height="20" as="geometry"/>
                </mxCell>
                <mxCell id="26" value="Rate structure:" style="text;html=1;align=center;verticalAlign=middle;resizable=0;points=[];autosize=1;strokeColor=none;fillColor=none;fontSize=6;" parent="1" vertex="1">
                    <mxGeometry x="150" y="440" width="60" height="20" as="geometry"/>
                </mxCell>
                <mxCell id="32" value="" style="edgeStyle=none;html=1;fontSize=6;" parent="1" source="27" edge="1">
                    <mxGeometry relative="1" as="geometry">
                        <mxPoint x="532.5" y="690" as="targetPoint"/>
                    </mxGeometry>
                </mxCell>
                <mxCell id="27" value="&lt;font style=&quot;font-size: 10px;&quot;&gt;How Will A visit process payments?&lt;br&gt;Customers sign up ahead of time with their&amp;nbsp; payment method. upon exit geofence, total price is calculated. A visit could create a transaction model&lt;/font&gt;" style="shape=note;whiteSpace=wrap;html=1;backgroundOutline=1;fontColor=#000000;darkOpacity=0.05;fillColor=#FFF9B2;strokeColor=none;fillStyle=solid;direction=west;gradientDirection=north;gradientColor=#FFF2A1;shadow=1;size=20;pointerEvents=1;fontSize=6;" parent="1" vertex="1">
                    <mxGeometry x="445" y="470" width="175" height="210" as="geometry"/>
                </mxCell>
                <mxCell id="28" value="TRANSACTION&lt;br&gt;belongs to visit" style="whiteSpace=wrap;html=1;fontSize=6;" parent="1" vertex="1">
                    <mxGeometry x="640" y="480" width="120" height="60" as="geometry"/>
                </mxCell>
                <mxCell id="30" value="Front End Routes&lt;br&gt;Sign Up Form /users/new post&lt;br&gt;Login Form /login post&lt;br&gt;Submit a Place form /places/new post&lt;br&gt;Edit a Place form /places/:id/edit patch&lt;br&gt;View Places /places get&lt;br&gt;View Visits /visits get&lt;br&gt;Visit Interaction:&lt;br&gt;/visit/new post&lt;br&gt;/visit/:id/end post&lt;br&gt;" style="shape=note;whiteSpace=wrap;html=1;backgroundOutline=1;fontColor=#000000;darkOpacity=0.05;fillColor=#FFF9B2;strokeColor=none;fillStyle=solid;direction=west;gradientDirection=north;gradientColor=#FFF2A1;shadow=1;size=20;pointerEvents=1;fontSize=6;" parent="1" vertex="1">
                    <mxGeometry x="220" y="490" width="140" height="160" as="geometry"/>
                </mxCell>
                <mxCell id="33" style="edgeStyle=none;html=1;exitX=1;exitY=0.75;exitDx=0;exitDy=0;" parent="1" source="6" target="6" edge="1">
                    <mxGeometry relative="1" as="geometry"/>
                </mxCell>
            </root>
        </mxGraphModel>
    </diagram>
</mxfile>